<?xml version="1.0" encoding="utf-8"?>
<!-- Generator: Adobe Illustrator 18.1.1, SVG Export Plug-In . SVG Version: 6.00 Build 0)  -->
<svg version="1.1" id="Layer_1" xmlns="http://www.w3.org/2000/svg" xmlns:xlink="http://www.w3.org/1999/xlink" x="0px" y="0px"
	 width="194px" height="41.2px" viewBox="90 904 194 41.2" enable-background="new 90 904 194 41.2" xml:space="preserve">
<g id="Atlassian__x5F__Blue">
	<g>
		<g>
			<path fill="#FFFFFF" d="M146.6,915.1c-0.1-0.3-0.4-0.5-0.7-0.5h-7.2c-0.3,0-0.6,0.2-0.7,0.5l-9.1,28.7c-0.1,0.2,0,0.5,0.1,0.7
				c0.1,0.2,0.4,0.3,0.6,0.3h4.9c0.3,0,0.6-0.2,0.7-0.6l6.2-21.1c0,0,0.2-0.5,0.7-0.5c0.6,0,0.7,0.5,0.7,0.5l2.9,10H142
				c-0.3,0-0.6,0.2-0.7,0.6l-1.1,4c-0.1,0.2,0,0.5,0.1,0.7c0.1,0.2,0.4,0.3,0.6,0.3h6.6l1.7,5.6c0.1,0.3,0.4,0.5,0.7,0.5h4.9
				c0.2,0,0.5-0.1,0.6-0.3c0.1-0.2,0.2-0.5,0.1-0.7L146.6,915.1z"/>
			<path fill="#FFFFFF" d="M168.2,940.4c0-0.2-0.2-0.4-0.3-0.5c-0.2-0.1-0.4-0.2-0.6-0.1c-0.8,0.2-1.6,0.3-2.2,0.3
				c-1.1,0-1.6-0.5-1.6-1.6v-11h4.4c0.4,0,0.8-0.3,0.8-0.8v-3.4c0-0.4-0.3-0.8-0.8-0.8h-4.4v-5.3c0-0.2-0.1-0.4-0.3-0.6
				c-0.2-0.1-0.4-0.2-0.6-0.2L158,917c-0.4,0.1-0.7,0.4-0.7,0.8v4.7h-2.5c-0.4,0-0.8,0.3-0.8,0.8v3.4c0,0.4,0.3,0.8,0.8,0.8h2.5
				v11.7c0,4,2.1,6.1,6.3,6.1c1.2,0,3.2-0.3,4.5-0.7c0.4-0.1,0.6-0.5,0.5-0.8L168.2,940.4z"/>
			<path fill="#FFFFFF" d="M176.6,914H172c-0.4,0-0.8,0.3-0.8,0.8V944c0,0.4,0.3,0.8,0.8,0.8h4.5c0.4,0,0.8-0.3,0.8-0.8v-29.3
				C177.3,914.3,177,914,176.6,914z"/>
			<path fill="#FFFFFF" d="M188.3,922c-2.3,0-5.1,0.4-7.1,0.9c-0.4,0.1-0.6,0.5-0.6,0.9l0.5,3.3c0,0.2,0.1,0.4,0.3,0.5
				c0.2,0.1,0.4,0.2,0.6,0.1c1.9-0.4,3.8-0.6,5.5-0.6c3.3,0,3.8,0.7,3.8,2.9v1.9h-4.9c-4.7,0-6.6,1.9-6.6,6.4c0,4.3,2.2,6.8,6,6.8
				c2.2,0,4.4-0.6,6.2-1.7l0.2,0.7c0.1,0.3,0.4,0.6,0.7,0.6h3.7c0.4,0,0.8-0.3,0.8-0.8v-13.8C197.4,924.2,194.9,922,188.3,922z
				 M191.3,936.6v2.7c-0.8,0.4-2.1,1-3.8,1c-1.4,0-1.8-0.4-1.8-1.8c0-1.4,0.3-1.8,1.9-1.8H191.3z"/>
			<path fill="#FFFFFF" d="M208.8,931c-2.8-0.7-2.8-0.8-2.8-2.3c0-1,0.1-1.5,2.4-1.5c1.6,0,3.9,0.3,5.4,0.5c0.2,0,0.4,0,0.6-0.1
				c0.2-0.1,0.3-0.3,0.3-0.5l0.4-3.5c0-0.4-0.2-0.8-0.6-0.8c-1.7-0.4-4.2-0.7-6.2-0.7c-7,0-8.4,2.6-8.4,6.6c0,4.4,0.8,5.8,6.2,7.1
				c3.5,0.8,3.5,1.5,3.5,2.5c0,1.4-0.1,1.8-2.4,1.8c-1.9,0-4-0.3-5.9-0.8c-0.2-0.1-0.4,0-0.6,0.1c-0.2,0.1-0.3,0.3-0.3,0.5l-0.6,3.3
				c-0.1,0.4,0.2,0.8,0.5,0.9c2.1,0.7,5,1.1,7.2,1.1c6.8,0,8.2-2.8,8.2-7.1C215.6,933.4,214.8,932.6,208.8,931z"/>
			<path fill="#FFFFFF" d="M226.3,931c-2.8-0.7-2.8-0.8-2.8-2.3c0-1,0.1-1.5,2.4-1.5c1.6,0,3.9,0.3,5.4,0.5c0.2,0,0.4,0,0.6-0.1
				c0.2-0.1,0.3-0.3,0.3-0.5l0.4-3.5c0-0.4-0.2-0.8-0.6-0.8c-1.7-0.4-4.2-0.7-6.2-0.7c-7,0-8.4,2.6-8.4,6.6c0,4.4,0.8,5.8,6.2,7.1
				c3.5,0.8,3.5,1.5,3.5,2.5c0,1.4-0.1,1.8-2.4,1.8c-1.9,0-4-0.3-5.9-0.8c-0.2-0.1-0.4,0-0.6,0.1c-0.2,0.1-0.3,0.3-0.3,0.5l-0.6,3.3
				c-0.1,0.4,0.2,0.8,0.5,0.9c2.1,0.7,5,1.1,7.2,1.1c6.8,0,8.2-2.8,8.2-7.1C233.2,933.4,232.4,932.6,226.3,931z"/>
			<path fill="#FFFFFF" d="M241,914h-4.5c-0.4,0-0.8,0.3-0.8,0.8v4c0,0.4,0.3,0.8,0.8,0.8h4.5c0.4,0,0.8-0.3,0.8-0.8v-4
				C241.8,914.3,241.5,914,241,914z"/>
			<path fill="#FFFFFF" d="M241,922.5h-4.5c-0.4,0-0.8,0.3-0.8,0.8V944c0,0.4,0.3,0.8,0.8,0.8h4.5c0.4,0,0.8-0.3,0.8-0.8v-20.8
				C241.8,922.8,241.5,922.5,241,922.5z"/>
			<path fill="#FFFFFF" d="M252.8,922c-2.3,0-5.1,0.4-7.1,0.9c-0.4,0.1-0.6,0.5-0.6,0.9l0.5,3.3c0,0.2,0.1,0.4,0.3,0.5
				c0.2,0.1,0.4,0.2,0.6,0.1c1.9-0.4,3.8-0.6,5.5-0.6c3.3,0,3.8,0.7,3.8,2.9v1.9H251c-4.7,0-6.6,1.9-6.6,6.4c0,4.3,2.2,6.8,6,6.8
				c2.2,0,4.4-0.6,6.2-1.7l0.2,0.7c0.1,0.3,0.4,0.6,0.7,0.6h3.7c0.4,0,0.8-0.3,0.8-0.8v-13.8C262,924.2,259.5,922,252.8,922z
				 M255.9,936.6v2.7c-0.8,0.4-2.1,1-3.8,1c-1.4,0-1.8-0.4-1.8-1.8c0-1.4,0.3-1.8,1.9-1.8H255.9z"/>
			<path fill="#FFFFFF" d="M278.8,922c-2.4,0-5.7,0.8-8.5,2.1L270,923c-0.1-0.3-0.4-0.6-0.7-0.6h-3.4c-0.4,0-0.8,0.3-0.8,0.8V944
				c0,0.4,0.3,0.8,0.8,0.8h4.5c0.4,0,0.8-0.3,0.8-0.8v-14.4c1.6-0.8,3.9-1.7,5.3-1.7c1,0,1.4,0.4,1.4,1.4V944c0,0.4,0.3,0.8,0.8,0.8
				h4.5c0.4,0,0.8-0.3,0.8-0.8v-15.3C284,924.3,282.2,922,278.8,922z"/>
		</g>
		<g>
			<path fill="#57AFE5" d="M134.5,904.4c-0.2-0.3-0.5-0.4-0.8-0.4c-0.2,0-0.3,0-0.5,0.1c-6.2,3.4-13.4,5.2-20.8,5.2
				c-7.4,0-14.6-1.8-20.8-5.2c-0.1-0.1-0.3-0.1-0.5-0.1c-0.3,0-0.6,0.2-0.8,0.4c-0.3,0.4-0.3,1,0.2,1.4c3.1,2.3,6.5,4.1,10.2,5.4
				c3.8,1.3,7.7,1.9,11.8,1.9h0c4,0,8-0.7,11.8-1.9c3.7-1.2,7.1-3,10.2-5.4C134.8,905.5,134.8,904.8,134.5,904.4z"/>
			<path fill="#57AFE5" d="M127.4,914.1c-0.1-0.1-0.3-0.2-0.5-0.2c-0.1,0-0.2,0-0.3,0.1c-1.8,0.7-3.6,1.2-5.3,1.6
				c-0.3,0.1-0.6,0.3-0.7,0.6c-1.2,3.3-4.3,6.5-7.6,9.8c-0.1,0.1-0.3,0.3-0.6,0.3c-0.3,0-0.5-0.2-0.6-0.3c-3.3-3.3-6.4-6.5-7.6-9.8
				c-0.1-0.3-0.4-0.6-0.7-0.6c-1.7-0.4-3.5-0.9-5.3-1.6c-0.1,0-0.2-0.1-0.3-0.1c-0.2,0-0.4,0.1-0.5,0.2c-0.2,0.2-0.4,0.5-0.3,0.7
				c0.3,2.8,1.4,5.5,3.3,8.3c1.9,2.7,4.3,5.1,6.6,7.5c4.3,4.4,8.4,8.6,8.7,13.4c0,0.4,0.4,0.8,0.8,0.8h5.1c0.2,0,0.4-0.1,0.6-0.3
				c0.2-0.2,0.2-0.4,0.2-0.6c-0.2-3.2-1.4-6.4-3.7-9.9c-0.5-0.7-1-1.4-1.6-2.1c-0.2-0.3-0.1-0.6,0-0.8c0.2-0.2,0.3-0.3,0.5-0.5
				c2.3-2.4,4.8-4.9,6.6-7.5c2-2.8,3.1-5.5,3.3-8.3C127.7,914.6,127.6,914.3,127.4,914.1z"/>
			<g>
				<path fill="#57AFE5" d="M106.9,934.4c-0.1-0.1-0.3-0.3-0.6-0.3c-0.4,0-0.6,0.3-0.7,0.4c-2.1,3.2-3.2,6.3-3.4,9.4
					c0,0.2,0.1,0.5,0.2,0.6c0.2,0.2,0.4,0.3,0.6,0.3h5.1c0.4,0,0.8-0.3,0.8-0.8c0.1-1.5,0.6-3,1.4-4.5c0.3-0.5,0.1-1-0.1-1.3
					C109.5,937.1,108.4,936,106.9,934.4z"/>
			</g>
			<path fill="#57AFE5" d="M112.4,916.6c1.6,0,2.5-0.1,2.8-0.1c0.4,0,0.8,0.3,0.8,0.8c0,0.1,0,0.2-0.1,0.3c-0.2,0.6-1.2,2.6-3,4.3
				c-0.2,0.2-0.4,0.2-0.6,0.2h0c-0.2,0-0.4,0-0.6-0.2c-1.8-1.7-2.7-3.8-3-4.3c0-0.1-0.1-0.2-0.1-0.3c0-0.4,0.4-0.8,0.8-0.8
				C109.8,916.5,110.8,916.6,112.4,916.6L112.4,916.6z"/>
		</g>
	</g>
</g>
</svg>
